<svg width="32" height="32" viewBox="0 0 32 32" fill="none" xmlns="http://www.w3.org/2000/svg">
<path d="M7.91237 28.1236L7.98982 28.1286L8.12201 28.1533L8.18678 28.1686L8.31563 28.2186L8.54063 28.3311L8.6281 28.379L8.785 28.4857L8.86044 28.5416L8.9933 28.6643L9.05673 28.7281L9.16556 28.8675L9.21697 28.9394L9.30176 29.0954L9.34115 29.176L9.40191 29.3494L9.42995 29.438L9.46734 29.6281L9.48336 29.7254L9.49738 29.9337L9.49204 30.2654L9.48603 30.3554L9.46066 30.5259L9.44597 30.6094L9.40258 30.7676L9.37854 30.8445L9.31712 30.9897L9.28373 31.0608L9.20361 31.1937L9.16088 31.2582L9.06274 31.3787L9.01133 31.4375L8.89449 31.5457L8.83373 31.5979L8.6982 31.6944L8.47387 31.8244L8.4258 31.849L8.31563 31.8904L8.25822 31.91L8.13336 31.9405L8.00517 31.9688L7.7281 31.9935L7.58856 32L7.31816 31.9797L7.25273 31.9717L7.13055 31.947L7.07113 31.9325L6.9643 31.8962L6.87016 31.8599L6.69858 31.767L6.61579 31.7177L6.4669 31.6015L6.39479 31.5413L6.26861 31.4056L6.20852 31.3359L6.10436 31.1835L6.05496 31.1058L5.97417 30.9396L5.93611 30.8554L5.87803 30.6798L5.85199 30.5912L5.8166 30.4091L5.80192 30.3176L5.78923 30.1311L5.78589 30.0382L5.79724 29.8524L5.80525 29.7595L5.8393 29.5766L5.85933 29.4859L5.91742 29.3095L5.9488 29.2217L6.03025 29.0548L6.07365 28.9727L6.17847 28.8189L6.23389 28.7441L6.36208 28.6062L6.42951 28.5394L6.58174 28.4211L6.83745 28.2687L6.89086 28.2426L7.00236 28.202L7.06044 28.1831L7.18529 28.1555L7.25006 28.1432L7.39494 28.1279L7.6393 28.1178L7.74613 28.1163M13.9894 28.0953L14.1349 28.112L14.207 28.1228L14.3452 28.1599L14.414 28.1802L14.5442 28.2368L14.6083 28.2673L14.7298 28.3413L14.7892 28.3812L14.9 28.4734L14.9541 28.522L15.0529 28.6309L15.101 28.6875L15.1878 28.8131L15.2292 28.8777L15.302 29.0185L15.336 29.091L15.3934 29.2464L15.4201 29.3255L15.4615 29.4946L15.4796 29.5809L15.5029 29.7631L15.5176 30.0498V30.3996H12.8991L12.9451 30.5992L12.9632 30.6798L13.0306 30.8213L13.0693 30.8881L13.1708 31.0006L13.2249 31.0536L13.3524 31.1356L13.4185 31.1726L13.5647 31.2212L13.6395 31.2416L13.7957 31.2561L13.8752 31.2582L14.0348 31.2357L14.1135 31.2198L14.2684 31.1581L14.4861 31.0187L14.5509 30.965L14.6557 30.9012L14.7064 30.8765L14.8006 30.8721L14.8486 30.8779L14.9541 30.9353L14.9822 30.9541L15.0449 31.0028L15.1504 31.0949L15.3507 31.2778L15.0723 31.5515L14.9955 31.6262L14.7979 31.7699L14.7485 31.8026L14.6543 31.8556L14.5302 31.9107L14.4267 31.9441L14.183 31.9811L14.0575 31.9949L13.7964 31.9927L13.6669 31.9862L13.4232 31.9463L13.3644 31.934L13.2569 31.9027L13.2055 31.8861L13.1141 31.8454L13.0366 31.8077L12.8931 31.7184L12.823 31.6719L12.6954 31.5667L12.634 31.5123L12.5232 31.3918L12.4698 31.3301L12.3763 31.1951L12.3316 31.1262L12.2555 30.9781L12.2201 30.9026L12.1627 30.7422L12.1366 30.6609L12.0979 30.4896L12.0632 30.2204L12.0552 30.1151L12.0578 29.9126L12.0618 29.8132L12.0879 29.623L12.1039 29.5294L12.1533 29.3523L12.1807 29.266L12.2521 29.1034L12.2902 29.0243L12.3837 28.8777L12.4331 28.8058L12.5479 28.6759L12.608 28.6127L12.7435 28.5002L12.9699 28.3529L13.0506 28.3079L13.2115 28.2368L13.2923 28.2041L13.4512 28.1555L13.53 28.1345L13.6862 28.1091L13.763 28.0989L13.9146 28.0945M22.7897 28.1257L22.8625 28.1316L22.9974 28.1504L23.1295 28.1736L23.3612 28.2586L23.4734 28.3079L23.6764 28.4523L23.9655 28.7427L24.0516 28.8457L24.1818 29.041L24.2405 29.1389L24.322 29.34L24.3574 29.443L24.3988 29.6724L24.4235 30.073V30.1797L24.4168 30.3474L24.4121 30.4265L24.3894 30.5593L24.3754 30.6239L24.33 30.7516L24.2305 30.9701L24.1724 31.0848L24.0402 31.2858L23.9715 31.3816L23.8172 31.5435L23.7378 31.6197L23.5615 31.7431L23.2711 31.8853L23.2284 31.9013L23.1269 31.9274L23.0735 31.939L22.9546 31.9579L22.8331 31.9753L22.5674 31.9869L22.4352 31.9891L22.1875 31.971L22.1294 31.9644L22.0252 31.9456L21.9758 31.9347L21.8937 31.9078L21.8016 31.873L21.6213 31.7714L21.5325 31.7169L21.3663 31.5827L21.2855 31.5123L21.1419 31.354L20.963 31.0964L20.923 31.026L20.8629 30.9004L20.8355 30.8387L20.7974 30.7139L20.7801 30.6493L20.7574 30.5042L20.736 30.2414L20.7273 30.0781L20.7393 29.7914L20.75 29.6543L20.8028 29.4097L20.8348 29.2921L20.933 29.0773L21.1333 28.7746L21.2287 28.657L21.4257 28.4741L21.5265 28.3907L21.7462 28.2716L21.8597 28.2194L22.1167 28.1562L22.1841 28.1439L22.3284 28.1286L22.5614 28.1192L22.6415 28.1185M11.2099 26.3534L11.2126 26.3744L11.2179 26.4688L11.2199 26.5239L11.2239 26.6792L11.2259 26.7642L11.2293 26.9732L11.2306 27.0842L11.2326 27.339L11.234 27.4711L11.2346 27.7636L11.2353 27.9138V28.2361L11.2306 29.2747L11.2113 31.8875L10.3767 31.9311V26.0449H11.1699M20.2186 28.1054L20.2586 28.1163L20.314 28.1417L20.3374 28.157L20.3655 28.2092L20.3775 28.2411L20.3875 28.3435L20.3888 28.374L20.3908 28.4473L20.3915 28.5808V29.009L20.0256 29.0054L19.9215 29.0039L19.7459 29.0279L19.6631 29.0446L19.5229 29.1085L19.4568 29.1462L19.3419 29.2558L19.187 29.4779L19.1583 29.5287L19.1183 29.6368L19.1096 29.6666L19.0956 29.7355L19.0889 29.7726L19.0789 29.8604L19.0742 29.9076L19.0675 30.0208L19.0649 30.0817L19.0609 30.2276L19.0595 30.3053L19.0575 30.4896L19.0562 30.817V31.9238H18.1862L18.2036 30.0549L18.2216 28.186H19.0228L19.0442 28.4255L19.0649 28.6643L19.2932 28.4465L19.36 28.3827L19.5162 28.276L19.5963 28.2266L19.7646 28.1548L19.848 28.1243L20.0083 28.0945M16.8309 28.1635L17.1534 28.186L17.1888 31.9238H16.7448L16.6433 31.9202L16.5945 31.9173L16.5098 31.9093L16.4704 31.9049L16.4116 31.894L16.3862 31.8882L16.3635 31.8752L16.3602 31.8723L16.3542 31.8302L16.3515 31.8033L16.3462 31.7177L16.3435 31.6705L16.3382 31.5471L16.3362 31.4811L16.3322 31.325L16.3302 31.243L16.3261 31.0587L16.3248 30.9636L16.3221 30.756L16.3188 30.0701V29.9453V29.7203V29.6107L16.3195 29.4147V29.3204L16.3208 29.1513L16.3221 29.0707L16.3248 28.927L16.3268 28.8581L16.3322 28.7383L16.3348 28.681L16.3422 28.5823L16.3509 28.4886L16.3782 28.3565L16.3936 28.2985L16.4383 28.2259L16.463 28.1954L16.5298 28.1664L16.5658 28.1555L16.658 28.1533M4.97069 31.9238H4.09873L4.11609 30.0549L4.13412 28.186H4.9353M0.48672 28.1555L0.627595 28.1787L0.659642 28.186L0.71439 28.2049L0.776482 28.2404L0.783826 28.247L0.803856 28.2774L0.815206 28.2949L0.84258 28.3471L0.871289 28.4037L0.943395 28.5707L0.981452 28.6607L1.06624 28.8777L1.19644 29.2369L1.25252 29.3995L1.34799 29.6731L1.39273 29.8023L1.4675 30.0135L1.50222 30.1122L1.55897 30.269L1.58568 30.3416L1.62707 30.4519L1.6471 30.502L1.67715 30.5738L1.69117 30.6058L1.71253 30.6464L1.72322 30.6631L1.73924 30.6812L1.7606 30.69H1.76394L1.77796 30.6675L1.78598 30.6522L1.80934 30.6029L1.82203 30.5746L1.85341 30.5005L1.86943 30.4606L1.90749 30.3648L1.94621 30.2646L2.03968 30.0128L2.19191 29.5831L2.22329 29.4917L2.28071 29.3262L2.30875 29.2456L2.35949 29.1012L2.38353 29.0315L2.42826 28.9067L2.45029 28.8465L2.48968 28.7405L2.52774 28.6389L2.59384 28.4843L2.62522 28.4146L2.6833 28.3152L2.71201 28.2709L2.76943 28.2157L2.79881 28.1918L2.86357 28.1686L2.89695 28.1599L2.9764 28.1577L3.11995 28.1642L3.20073 28.1693L3.31023 28.1809L3.35763 28.1874L3.41305 28.2099L3.43508 28.2237L3.45244 28.2673L3.45511 28.3674L3.45444 28.3798L3.44042 28.4386L3.43174 28.4727L3.40237 28.5714L3.38634 28.6251L3.34361 28.7579L3.32158 28.8283L3.2675 28.9916L3.23879 29.0758L3.17536 29.2638L3.14198 29.3596L3.06987 29.5672L2.83152 30.2363L2.21861 31.9238H1.30259L1.17908 31.6153L1.17107 31.5943L1.14302 31.5224L1.12767 31.4825L1.08694 31.3765L1.06558 31.3199L1.01417 31.1842L0.98746 31.1138L0.927372 30.9541L0.86528 30.7894L0.721734 30.4076L0.494064 29.7972L0.43531 29.639L0.33583 29.369L0.288427 29.2413L0.211646 29.0257L0.175593 28.9248L0.118842 28.7579L0.0928039 28.6802L0.0547476 28.5561L0.0380563 28.4988L0.0166914 28.4103L0.00801178 28.3703L0.00200288 28.3123L0 28.2861L0.00667644 28.252L0.0300442 28.2194L0.0480709 28.207L0.098145 28.1882L0.124851 28.1787L0.189614 28.1664L0.256379 28.1555L0.410607 28.1533M7.50243 28.9423L7.39828 28.964L7.34687 28.9771L7.24739 29.0185L7.19865 29.0417L7.10518 29.1034L7.05978 29.1368L6.97632 29.2188L6.93559 29.2631L6.86282 29.3668L6.76868 29.5483L6.74264 29.6122L6.70258 29.7377L6.68522 29.8009L6.66386 29.9235L6.65518 29.9852L6.65117 30.105L6.65184 30.1638L6.66586 30.2792L6.67521 30.3365L6.70725 30.4468L6.72528 30.5012L6.77469 30.6058L6.80139 30.6573L6.86816 30.7545L6.98767 30.8932L7.06579 30.9716L7.2327 31.0797L7.31816 31.1254L7.49909 31.169L7.59123 31.1828L7.78485 31.161L7.88299 31.1421L8.08863 31.0558L8.18077 31.01L8.33032 30.8917L8.39909 30.8286L8.50258 30.674L8.54864 30.592L8.60606 30.4011L8.64011 30.073V29.999L8.62409 29.8611L8.61341 29.7936L8.57802 29.668L8.55799 29.6071L8.50525 29.496L8.47721 29.4416L8.40977 29.3443L8.37439 29.2979L8.29494 29.2152L8.25421 29.176L8.16474 29.1099L8.07328 29.0468L7.87031 28.972L7.76682 28.943L7.55518 28.9386M22.4272 28.9531L22.3724 28.9611L22.2603 28.9923L22.0913 29.0635L22.0446 29.0874L21.9612 29.1469L21.9211 29.1781L21.8503 29.2514L21.7829 29.3276L21.6854 29.5105L21.6433 29.6064L21.5959 29.8154L21.5779 29.9213L21.5793 30.1398L21.5859 30.2479L21.6347 30.4577L21.6647 30.56L21.7602 30.7451L21.8136 30.8322L21.9551 30.9745L21.9925 31.0064L22.0773 31.0601L22.2162 31.1218L22.2863 31.1443L22.4472 31.1624L22.5293 31.1675L22.6989 31.1516L22.7824 31.1399L22.9379 31.0935L23.0114 31.0666L23.1289 30.9926L23.1516 30.9752L23.2063 30.9157L23.2337 30.883L23.2925 30.8024L23.452 30.5252L23.4801 30.465L23.5201 30.3452L23.5375 30.2857L23.5582 30.1674L23.5662 30.1086L23.5682 29.9939L23.5675 29.9366L23.5535 29.8263L23.5355 29.7167L23.454 29.5178L23.4073 29.4227L23.2764 29.2594L23.2057 29.1832L23.0354 29.0678L22.9466 29.017L22.747 28.9604L22.6448 28.9401M13.6776 28.8174L13.5808 28.8319L13.4005 28.9023L13.3578 28.9234L13.2803 28.9742L13.1788 29.0649L13.1261 29.123L13.0313 29.2718L13.0099 29.3088L12.9765 29.3799L12.9438 29.4743L12.8991 29.6739H13.8678L14.0261 29.6731L14.1009 29.6724L14.2257 29.6695L14.2845 29.668L14.3793 29.6637L14.4233 29.6608L14.4921 29.6535L14.5235 29.6492L14.5696 29.639L14.5902 29.6332L14.6176 29.6194L14.6417 29.6042L14.6497 29.5614V29.5076L14.6143 29.385L14.5923 29.3226L14.5215 29.1963L14.4834 29.1353L14.3893 29.0272L14.2371 28.9052L14.1563 28.8595L13.97 28.8167L13.8745 28.8022M16.8529 26.3628L16.9224 26.3751L17.0399 26.4274L17.0946 26.4579L17.1814 26.5406L17.2201 26.5842L17.2749 26.6865L17.2983 26.7395L17.3203 26.8513L17.327 26.9086L17.3149 27.0218L17.3043 27.077L17.2569 27.1815L17.2288 27.2323L17.1454 27.3179L16.9778 27.4159L16.917 27.4391L16.8342 27.4682L16.7968 27.4798L16.7408 27.4863L16.7134 27.487L16.656 27.4711L16.6253 27.4609L16.5405 27.4232L16.4984 27.405L16.4283 27.3513L16.3949 27.3216L16.3428 27.249L16.3188 27.2113L16.2841 27.1256L16.2694 27.0821L16.2547 26.9892L16.2494 26.9427L16.2534 26.8484L16.258 26.8012L16.2828 26.7105L16.2981 26.6662L16.3435 26.5849L16.4356 26.4789L16.4704 26.4492L16.5345 26.4064L16.5665 26.3875L16.6299 26.365L16.6626 26.3555L16.7328 26.3512M4.69227 26.3809L4.74902 26.4093L4.85718 26.4993L4.90859 26.5486L4.99272 26.6647L5.0715 26.8513L5.08085 26.897L5.07618 26.987L5.0695 27.0313L5.03678 27.1169L5.01675 27.1583L4.96134 27.2345L4.93129 27.2708L4.85785 27.3339L4.8198 27.3629L4.73434 27.4087L4.69094 27.429L4.59947 27.4537L4.5534 27.4624L4.45993 27.4609L4.41386 27.4573L4.32506 27.4261L4.281 27.4065L4.19487 27.3354L4.15348 27.2962L4.08004 27.1989L4.04665 27.1488L3.99858 27.0429L3.9672 26.8941V26.8694L3.98323 26.8135L3.99324 26.7845L4.02662 26.7235L4.06334 26.6618L4.17217 26.5406L4.23026 26.4833L4.35511 26.3947L4.38582 26.3766L4.44524 26.3512L4.52603 26.3352H4.57877M18.9407 15.1167L18.9674 15.1363L19.0388 15.2016L19.0769 15.2379L19.167 15.3294L19.2138 15.378L19.3159 15.4883L19.4194 15.603L19.6324 15.8556L19.6831 15.918L19.7786 16.0399L19.9041 16.2105L19.9735 16.3092L20.1011 16.5211L20.1632 16.6293L20.276 16.8572L20.3301 16.9733L20.4276 17.215L20.4743 17.3369L20.5551 17.5895L20.5931 17.7158L20.6566 17.9749L20.6859 18.1048L20.7307 18.3682L20.7507 18.4996L20.7767 18.7638L20.7921 19.1565V19.3771L20.7634 19.7879L20.744 19.9897L20.6746 20.3751L20.6339 20.5667L20.5197 20.9426L20.2954 21.5116L20.2413 21.6314L20.1211 21.8622L20.059 21.9754L19.9241 22.1932L19.8547 22.2998L19.7058 22.5031L19.6304 22.6032L19.4681 22.7919L19.386 22.8848L19.2124 23.059L19.1236 23.1439L18.9387 23.3022L18.8452 23.3798L18.6503 23.5228L18.5514 23.5917L18.3471 23.718L18.2437 23.779L18.0307 23.8879L17.9232 23.9401L17.7035 24.0316L17.592 24.0751L17.3657 24.1484L17.2515 24.1825L17.0185 24.2377L16.9017 24.2624L16.6647 24.2979L16.5458 24.3132L16.3048 24.3284L16.1839 24.3342L15.9396 24.3291L15.8174 24.3248L15.5717 24.2994L15.3347 24.2696L14.8813 24.1586L14.6577 24.0947L14.2317 23.9154L14.0221 23.8175L13.6235 23.5692L13.0566 23.1207L12.9258 23.001L12.6908 22.7484L12.5773 22.6185L12.3723 22.3398L12.2735 22.1961L12.0926 21.8825L11.8422 21.3636L11.7894 21.2416L11.6973 20.9956L11.6539 20.8722L11.5805 20.6247L11.5457 20.5013L11.4903 20.2531L11.465 20.129L11.4276 19.8801L11.4115 19.756L11.3922 19.507L11.3848 19.3829L11.3828 19.1347L11.3842 19.0106L11.4009 18.7638L11.4109 18.6404L11.4449 18.3944L11.4837 18.1498L11.6132 17.6664L11.6866 17.4262L11.8862 16.9559L11.9403 16.839L12.0618 16.6089L12.1246 16.4943L12.2635 16.2685L12.3349 16.1568L12.4905 15.9361L12.7435 15.6117L12.7869 15.5594L12.8724 15.4636L12.9144 15.4179L12.9899 15.3424L13.0259 15.3083L13.0834 15.2604L13.1394 15.2307H13.1501L13.1975 15.2611L13.2249 15.2807L13.2983 15.3439L13.3371 15.3787L13.4265 15.4665L13.5687 15.6161L13.9193 16.0015L13.4906 16.5313L13.4032 16.6394L13.2476 16.8506L13.1728 16.9551L13.0426 17.1627L12.9805 17.2665L12.8737 17.4726L12.823 17.5764L12.7395 17.7847L12.7001 17.89L12.638 18.1041L12.6093 18.2115L12.5673 18.4336L12.5492 18.5461L12.5265 18.7798L12.5132 19.1463V19.2929L12.5305 19.5767L12.5426 19.7175L12.5833 19.9897L12.6066 20.1239L12.6714 20.3838L12.7061 20.5122L12.7936 20.7583L12.8397 20.8802L12.9498 21.1132L13.0079 21.2279L13.1401 21.447L13.2095 21.5552L13.3651 21.7599L13.6228 22.0502L13.7163 22.1452L13.9119 22.3173L14.0114 22.4L14.2184 22.5481L14.3232 22.6192L14.5395 22.7418L14.6483 22.7999L14.8733 22.8979L14.9862 22.9429L15.2178 23.0147L15.334 23.0474L15.571 23.0924L15.6899 23.1113L15.9309 23.1294L16.2948 23.1251L16.4977 23.1113L16.8863 23.0343L17.0779 22.9879L17.4405 22.8478L17.6187 22.7702L17.9512 22.572L18.1135 22.466L18.4112 22.2127L18.5554 22.0799L18.8152 21.7765L18.9393 21.6183L19.1557 21.2678L19.2578 21.0871L19.4267 20.6937L19.6224 20.0601L19.6584 19.9076L19.6998 19.5977L19.7152 19.4424L19.7172 19.1303L19.7125 18.9736L19.6758 18.6607L19.6517 18.504L19.5763 18.1933L19.5336 18.0387L19.4207 17.7325L19.3593 17.5808L19.2097 17.2825L19.1296 17.1344L18.944 16.8463L18.6249 16.4282L18.5655 16.3585L18.4573 16.2264L18.4059 16.1626L18.3198 16.0523L18.2804 16.0015L18.2263 15.9252L18.1916 15.8628L18.1909 15.8512L18.2163 15.8033L18.2323 15.7757L18.2857 15.7032L18.3438 15.6262L18.504 15.4404L18.5855 15.349L18.7391 15.1944L18.7738 15.161L18.8292 15.1153L18.8839 15.0855H18.8946M15.774 0.00145161L15.8715 0.0108868L15.9155 0.0174189L15.9783 0.037741L16.0391 0.0820141L16.0457 0.0907235L16.0578 0.153867L16.0638 0.19306L16.0744 0.320798L16.0798 0.392651L16.0891 0.586437L16.0931 0.692402L16.1011 0.955863L16.1052 1.09739L16.1118 1.43343L16.1152 1.61125L16.1205 2.0235L16.1218 2.13091L16.1245 2.36171L16.1252 2.47929L16.1279 2.72969L16.1285 2.85743L16.1305 3.12742L16.1332 3.55636L16.1519 6.93273L16.3422 7.23103L16.3682 7.2724L16.4497 7.3711L16.4944 7.42191L16.6019 7.53078L16.9591 7.83198L17.0218 7.87625L17.152 7.98077L17.2181 8.0352L17.3517 8.15641L17.4859 8.28052L17.7462 8.55995L17.8724 8.7022L18.0941 8.99106L18.1462 9.06219L18.2363 9.20009L18.3498 9.39605L18.3752 9.44541L18.4346 9.57678L18.4653 9.64718L18.5301 9.80685L18.7077 10.2953L18.7451 10.4122L18.7978 10.6059L18.8212 10.7003L18.8499 10.8846L18.8619 10.9804L18.8726 11.2047L18.8746 11.2657L18.8759 11.4029V11.638L18.8746 11.7549L18.8672 11.9741L18.8626 12.0815L18.8465 12.284L18.8285 12.4821L18.7658 12.8421L18.729 13.0185L18.6249 13.3523L18.4159 13.8517L18.3478 13.9932L18.1842 14.2719L18.1008 14.4069L17.9292 14.6442L17.8878 14.6994L17.8077 14.7945L17.7683 14.8395L17.6962 14.9113L17.6615 14.9433L17.602 14.9861L17.5293 15.0129H17.5139L17.4605 14.9853L17.4311 14.9679L17.3563 14.9106L17.3176 14.8794L17.2322 14.8003L17.1888 14.7589L17.1006 14.666L17.0572 14.6181L16.9784 14.5274L16.9411 14.4831L16.8783 14.4062L16.8503 14.3706L16.8109 14.3169L16.7862 14.2712V14.2646L16.8082 14.2247L16.8222 14.2015L16.8683 14.1347L16.893 14.0992L16.9564 14.0135L17.0646 13.8742L17.1026 13.8263L17.1888 13.7014L17.2322 13.6354L17.3203 13.4888L17.3637 13.4147L17.4438 13.2638L17.544 13.0533L17.586 12.9546L17.6474 12.7862L17.6748 12.7035L17.7129 12.538L17.7296 12.4531L17.7509 12.2542L17.7563 12.2005L17.7636 12.0815L17.7736 11.8775L17.7803 11.7142L17.7736 11.4087L17.7669 11.2592L17.7309 10.979L17.7095 10.8418L17.6434 10.5842L17.6067 10.4572L17.5079 10.2169L17.4545 10.0986L17.3223 9.87217L17.2522 9.7604L17.0839 9.54484L16.9951 9.43742L16.7895 9.22767L16.4376 8.91631L16.3375 8.83502L16.1659 8.69204L16.0845 8.62382L15.9456 8.50188L15.8795 8.44382L15.768 8.33713L15.7152 8.28487L15.6251 8.18616L15.5397 8.08891L15.4095 7.8915L15.2299 7.53949L15.0169 7.06918V0.0254026L15.4902 0.00435469L15.575 0.000725805L15.7112 0L15.774 0.00145161Z" fill="#E39D1D"/>
<path d="M25.5658 31.9079L25.4977 31.8817L25.3622 31.8092L25.2961 31.7707L25.1799 31.6865L25.1258 31.6437L25.0484 31.5624L24.9983 31.4615V31.4492L25.0157 31.4092L25.027 31.3875L25.0631 31.3338L25.1025 31.2772L25.2126 31.148L25.2687 31.0848L25.3782 30.9803L25.4036 30.9585L25.4463 30.9273L25.4924 30.9077H25.4997L25.5284 30.9215L25.5445 30.9302L25.5858 30.9585L25.7347 31.0805L25.7988 31.1385L25.941 31.2227L26.0138 31.259L26.1674 31.2989L26.2448 31.3127L26.4011 31.3055L26.6307 31.2409L26.6801 31.2184L26.7509 31.177L26.7823 31.1567L26.823 31.1117L26.8404 31.0877L26.8584 31.0289L26.8677 30.9128V30.8431L26.8337 30.7321L26.8217 30.706L26.7856 30.6588L26.7649 30.6363L26.7108 30.5942L26.6808 30.5739L26.6054 30.5347L26.5646 30.5158L26.4658 30.4781L26.4131 30.4592L26.2876 30.4207L26.0666 30.3605L25.9644 30.3344L25.8048 30.2843L25.7307 30.2589L25.6126 30.203L25.5565 30.1725L25.4577 30.0977L25.3074 29.9526L25.2761 29.9185L25.224 29.8611L25.1993 29.8336L25.1612 29.7857L25.1252 29.7392L25.0871 29.6528L25.0724 29.6071L25.0664 29.491V29.4576L25.0691 29.3792L25.0778 29.2377L25.0844 29.1433L25.1011 29.0018L25.1111 28.9365L25.1419 28.8327L25.1606 28.7841L25.2153 28.6941L25.3355 28.5453L25.4069 28.4647L25.5912 28.3319L25.688 28.2702L25.9083 28.1802L26.0218 28.141L26.2608 28.1004L26.6194 28.1026L26.7128 28.1142L26.9198 28.1722L27.0233 28.2056L27.2203 28.292L27.3144 28.3363L27.4613 28.4313L27.4933 28.4553L27.5407 28.5003L27.5828 28.5627L27.5875 28.5758L27.5781 28.6186L27.5708 28.6425L27.5421 28.7006L27.5087 28.7623L27.4065 28.9031L27.3538 28.9721L27.243 29.086L27.2169 29.1107L27.1709 29.1441L27.1154 29.1658H27.1074L27.0787 29.1542L27.0634 29.147L27.0233 29.123L26.8858 29.0207L26.8397 28.9808L26.7088 28.9249L26.6401 28.9016L26.4852 28.8792L26.4071 28.8726L26.2555 28.8864L26.0619 28.951L26.0178 28.9764L25.9644 29.0591L25.943 29.1041L25.9357 29.2079L25.9377 29.2595L25.9758 29.3603L26.0832 29.4837L26.1246 29.512L26.2582 29.5708L26.4672 29.6354L26.6007 29.663L26.8317 29.7291L26.9412 29.7632L27.1261 29.8445L27.2136 29.8865L27.3578 29.9845L27.5321 30.1529L27.5768 30.2081L27.6396 30.3002L27.6669 30.3452L27.701 30.4367L27.7157 30.4853L27.729 30.6051L27.7357 30.846V30.8983L27.7344 30.9854L27.7337 31.0268L27.7297 31.0964L27.7243 31.1632L27.6983 31.2626L27.6816 31.3105L27.6229 31.3998L27.484 31.5617L27.4139 31.6379L27.2283 31.7787L27.1815 31.8106L27.0901 31.8629L26.9666 31.9151L26.9252 31.9282L26.8223 31.9478L26.7683 31.9572L26.6454 31.971L26.5199 31.9826L26.2422 31.9877L26.1046 31.987L25.8509 31.9667L25.7922 31.9601L25.6893 31.942L25.6413 31.9318M29.5377 31.9325L29.4496 31.9013L29.2853 31.8222L29.2045 31.7794L29.0556 31.6792L28.9835 31.6263L28.8527 31.5065L28.7893 31.4448L28.6771 31.3076L28.623 31.2365L28.5309 31.0834L28.4868 31.005L28.416 30.8381L28.3833 30.7524L28.3346 30.5731L28.2892 30.2908L28.2792 30.1834V29.9736L28.2825 29.8706L28.3092 29.671L28.3266 29.5723L28.3786 29.3843L28.408 29.2921L28.4855 29.1187L28.5269 29.033L28.6277 28.8755L28.6811 28.7986L28.8039 28.6592L28.8687 28.5917L29.0136 28.4727L29.2533 28.3188L29.3334 28.2767L29.4683 28.2151L29.5337 28.1875L29.6605 28.1526L29.7253 28.1374L29.8709 28.1214L30.1393 28.1134H30.2507L30.4617 28.1367L30.5659 28.1519L30.7608 28.2049L30.8563 28.2347L31.0339 28.3159L31.12 28.3595L31.2783 28.4676L31.3544 28.525L31.4913 28.6592L31.5567 28.7296L31.6708 28.8886L31.7249 28.9706L31.8144 29.1528L31.9192 29.4511L31.9513 29.5701L31.9866 29.8067L32 29.925L31.9993 30.1573L31.994 30.2719L31.9586 30.4955L31.9366 30.6058L31.8671 30.8156L31.8284 30.9193L31.7276 31.1124L31.6729 31.2068L31.5413 31.3788L31.4726 31.4622L31.3117 31.6096L31.0406 31.7975L31.0045 31.8179L30.905 31.8549L30.8523 31.873L30.7268 31.9035L30.5966 31.9325L30.2968 31.9681L30.1466 31.9819L29.8628 31.9812L29.7967 31.979L29.6799 31.9652L29.6245 31.9572M30.6039 31.0347L30.662 31.0028L30.7628 30.9266L30.8109 30.8867L30.893 30.7967L30.9311 30.751L30.9945 30.6508L31.0239 30.5993L31.0693 30.4911L31.11 30.3808L31.1394 30.1478L31.1467 30.0303L31.1114 29.798L31.0867 29.6833L30.9912 29.4721L30.9638 29.4213L30.899 29.3277L30.8643 29.2827L30.7855 29.2014L30.7448 29.1629L30.6533 29.0962L30.6059 29.0657L30.5018 29.0163L30.4484 28.9946L30.3322 28.9662L30.1459 28.9481H30.0498L29.8722 28.9873L29.7867 29.012L29.6325 29.0947L29.5591 29.1412L29.4329 29.2609L29.3735 29.3248L29.2786 29.475L29.2359 29.5527L29.1772 29.7247L29.1525 29.8132L29.1331 30.0005L29.1291 30.0956L29.1538 30.2908L29.2439 30.5848L29.2766 30.6595L29.3387 30.7727L29.3708 30.825L29.4442 30.9048L29.4836 30.9418L29.5858 31.0043L29.7881 31.0943L29.8762 31.1284L30.0171 31.169L30.0838 31.1843L30.2027 31.1857L30.2614 31.1814L30.3849 31.1422L30.4497 31.1168M29.8722 27.4595V27.4544L29.8969 27.4051L29.9122 27.3746L29.963 27.2839L29.9917 27.2345L30.0618 27.1148L30.1826 26.9152L30.4924 26.4078H30.9504H31.0132L31.128 26.4122L31.1828 26.4151L31.2736 26.4245L31.315 26.4296L31.3717 26.4427L31.4078 26.4645V26.4717L31.3724 26.5247L31.349 26.5559L31.2749 26.6474L31.2342 26.6967L31.1314 26.815L30.9551 27.0088L30.9017 27.0669L30.8116 27.1627L30.7682 27.2077L30.6961 27.2802L30.662 27.3144L30.6026 27.3666L30.5739 27.3913L30.5225 27.4268L30.4724 27.4588L30.3736 27.4856L30.1873 27.4965H30.1012L29.965 27.4856L29.9363 27.482L29.8969 27.474L29.8809 27.4697M15.4342 22.1192L15.3467 22.0974L15.1691 22.0299L15.0803 21.9929L14.9014 21.8985L14.8126 21.8484L14.6377 21.7316L14.5515 21.6713L14.3853 21.5356L14.3038 21.466L14.1509 21.3164L14.0768 21.2402L13.9426 21.0798L13.8779 20.9985L13.7664 20.8323L13.6302 20.5798L13.5627 20.4303L13.4632 20.1269L13.4192 19.9745L13.3658 19.6682L13.3451 19.5143L13.3377 19.2066L13.3397 19.0527L13.3778 18.7471L13.4025 18.5947L13.4853 18.2928L13.5327 18.1433L13.6602 17.8486L13.729 17.7027L13.9012 17.4182L14.2077 17.0053L14.5716 16.5734L14.9448 16.9704L14.9955 17.0249L15.089 17.1315L15.1337 17.1838L15.2078 17.2782L15.2419 17.3232L15.2879 17.3943L15.3173 17.4625V17.4756L15.2986 17.5198L15.2866 17.5445L15.2486 17.6048L15.0823 17.8138L15.0095 17.8922L14.8854 18.0453L14.8259 18.1215L14.7271 18.271L14.681 18.3451L14.6069 18.4931L14.5736 18.5672L14.5241 18.7167L14.5028 18.7914L14.4781 18.9446L14.4681 19.0215L14.4661 19.1797L14.4681 19.2596L14.4888 19.4258L14.5442 19.6863L14.5769 19.8083L14.681 20.0434L14.7385 20.1588L14.884 20.3686L14.9601 20.4687L15.1351 20.6378L15.4175 20.8287L15.5223 20.881L15.7633 20.9412L15.8868 20.9644L16.1459 20.9673L16.2747 20.9615L16.5264 20.9085L16.8669 20.7677L16.9584 20.7133L17.1227 20.5761L17.2014 20.5036L17.3376 20.3352L17.4024 20.2481L17.5086 20.0557L17.558 19.9578L17.6321 19.7495L17.6648 19.6435L17.7049 19.4265L17.7195 19.3176L17.7222 19.0992L17.7189 18.991L17.6822 18.7784L17.58 18.4757L17.5687 18.4518L17.5079 18.3632L17.4718 18.3124L17.3623 18.1738L17.3016 18.0976L17.1447 17.9096L17.0606 17.8094L16.8583 17.575L16.7514 17.4516L16.5064 17.1729L16.3782 17.0278L16.0911 16.7062L15.9422 16.5408L15.6158 16.1786L15.083 15.5936L14.882 15.3744L14.5188 14.9745L14.3432 14.7807L14.0301 14.4331L13.8799 14.2647L13.6155 13.9671L13.49 13.8241L13.2736 13.5759L13.1721 13.4576L13.0039 13.258L12.9251 13.1637L12.8036 13.0112L12.7482 12.9408L12.6721 12.8349L12.6086 12.7267L12.588 12.6752L12.5546 12.5554L12.5392 12.4923L12.5165 12.3435L12.5072 12.2644L12.4945 12.0786L12.4851 11.7469L12.4845 11.6439L12.4891 11.4588L12.4931 11.3688L12.5078 11.2069L12.5172 11.1278L12.5439 10.9827L12.5592 10.9123L12.6006 10.7794L12.6233 10.7141L12.6801 10.5886L12.7108 10.5261L12.7856 10.4013L12.825 10.3389L12.9191 10.2112L13.084 10.0079L13.1695 9.90923L13.3504 9.74084L13.4425 9.66173L13.6355 9.53109L13.733 9.47085L13.9346 9.37722L14.0368 9.33513L14.2437 9.27634L14.3479 9.25166L14.5575 9.22771L14.6624 9.21973L14.8707 9.22844L14.9748 9.23715L15.1798 9.27779L15.2813 9.30174L15.4789 9.37214L15.577 9.41134L15.7647 9.51149L15.8568 9.5652L16.031 9.69294L16.1158 9.76044L16.2734 9.91503L16.3502 9.99487L16.4884 10.1749L16.5545 10.2678L16.6693 10.4717L16.7241 10.577L16.8129 10.8034L16.8543 10.9195L16.9137 11.1677L16.9678 11.5626L16.9744 11.6598L16.9784 11.8282L16.9791 11.9088L16.9704 12.0539L16.8896 12.4625L16.8736 12.5141L16.8276 12.628L16.8029 12.6861L16.7428 12.808L16.6793 12.93L16.5311 13.1658L16.4937 13.2217L16.4203 13.3219L16.3836 13.3698L16.3155 13.4474L16.2821 13.483L16.2247 13.5309L16.1552 13.5614H16.1405L16.1005 13.5476L16.0798 13.5382L16.0297 13.5084L15.9776 13.4743L15.8568 13.3705L15.7954 13.3139L15.6725 13.1811L15.5129 12.9742L15.3734 12.7608L15.5403 12.546L15.5851 12.488L15.6605 12.3624L15.6952 12.2992L15.7493 12.1664L15.7733 12.0997L15.806 11.9618L15.8201 11.8928L15.8321 11.7535L15.8348 11.6838L15.8254 11.5452L15.8174 11.4769L15.786 11.3427L15.768 11.2759L15.7152 11.1489L15.6111 10.9689L15.5537 10.8876L15.4315 10.7598L15.3681 10.7018L15.2279 10.6183L15.1544 10.582L14.9868 10.5385L14.6964 10.5131H14.5976L14.418 10.5443L14.3305 10.5661L14.1716 10.6408L14.0948 10.6836L13.954 10.8027L13.7617 11.0342L13.715 11.1024L13.6502 11.286L13.6228 11.3826L13.5974 11.5967L13.5901 11.7041L13.6068 11.9146L13.6829 12.1882L13.6869 12.1969L13.7063 12.2267L13.7183 12.2434L13.753 12.2898L13.7717 12.3145L13.8204 12.3755L13.8465 12.4074L13.9086 12.4829L13.974 12.5613L14.1402 12.7565L14.229 12.8603L14.438 13.0998L14.5469 13.2246L14.7919 13.5019L14.9181 13.6441L15.1918 13.9504L15.3313 14.1065L15.6278 14.4345L16.0905 14.9433L16.2213 15.0863L16.461 15.349L16.5772 15.476L16.7902 15.7097L16.8937 15.8237L17.0813 16.0305L17.1721 16.1307L17.3363 16.3136L17.4158 16.4014L17.5586 16.5618L17.6274 16.6395L17.7509 16.7795L17.8097 16.847L17.9152 16.969L17.9659 17.0278L18.0547 17.1337L18.0974 17.1853L18.1722 17.2774L18.2083 17.3217L18.2704 17.403L18.3298 17.4806L18.4192 17.612L18.46 17.6744L18.5227 17.7877L18.6028 17.9553L18.6282 18.0141L18.671 18.1157L18.691 18.1651L18.7237 18.2522L18.7537 18.3378L18.7898 18.4989L18.8045 18.5831L18.8172 18.7907L18.8192 18.8488L18.8212 18.983L18.8225 19.2225V19.3104L18.8212 19.4591L18.8205 19.5303L18.8172 19.6508L18.8125 19.7654L18.7905 19.9403L18.7764 20.0238L18.7284 20.1806L18.7143 20.2212L18.679 20.3098L18.6155 20.46L18.5701 20.5631L18.4707 20.7561L18.4186 20.8512L18.3051 21.0268L18.247 21.1132L18.1208 21.2714L18.056 21.3484L17.9172 21.4885L17.8464 21.5567L17.6948 21.6793L17.6181 21.7381L17.4545 21.8419L17.3717 21.8913L17.1968 21.9762L16.921 22.0821L16.8249 22.1134L16.5839 22.1555L16.4577 22.1729L16.1859 22.1867L16.0497 22.1903L15.784 22.175L15.6558 22.1642L15.4342 22.1192Z" fill="#FFFEFE"/>
</svg>
