<svg width="800" height="800" viewBox="0 0 800 800" fill="none" xmlns="http://www.w3.org/2000/svg">
<g clip-path="url(#clip0_2_15)">
<path fill-rule="evenodd" clip-rule="evenodd" d="M636 356C508 280 294 272 172 310C152 316 132 304 126 286C120 266 132 246 150 240C292 198 526 206 674 294C692 304 698 328 688 346C678 360 654 366 636 356ZM632 468C622 482 604 488 590 478C482 412 318 392 192 432C176 436 158 428 154 412C150 396 158 378 174 374C320 330 500 352 624 428C636 434 642 454 632 468ZM584 578C576 590 562 594 550 586C456 528 338 516 198 548C184 552 172 542 168 530C164 516 174 504 186 500C338 466 470 480 574 544C588 550 590 566 584 578ZM400 0C180 0 0 180 0 400C0 620 180 800 400 800C620 800 800 620 800 400C800 180 622 0 400 0Z" fill="white"/>
</g>
<defs>
<clipPath id="clip0_2_15">
<rect width="800" height="800" fill="white"/>
</clipPath>
</defs>
</svg>
